<svg xmlns="http://www.w3.org/2000/svg" width="24" height="24" preserveAspectRatio="xMidYMid meet" transform="rotate(360deg)" viewBox="0 0 24 24" style="-ms-transform:rotate(360deg);-webkit-transform:rotate(360deg)"><path fill="#fff" d="M21 21h-4v-6.75c0-1.06-1.19-1.94-2.25-1.94S13 13.19 13 14.25V21H9V9h4v2c.66-1.07 2.36-1.76 3.5-1.76c2.5 0 4.5 2.04 4.5 4.51V21M7 21H3V9h4v12M5 3a2 2 0 0 1 2 2a2 2 0 0 1-2 2a2 2 0 0 1-2-2a2 2 0 0 1 2-2z"/><rect width="24" height="24" x="0" y="0" fill="rgba(0, 0, 0, 0)"/></svg>