<svg xmlns="http://www.w3.org/2000/svg" xmlns:xlink="http://www.w3.org/1999/xlink" width="256" height="256" preserveAspectRatio="xMidYMid meet" transform="rotate(360deg)" viewBox="0 0 256 256" style="-ms-transform:rotate(360deg);-webkit-transform:rotate(360deg)"><defs><linearGradient id="IconifyId-16f0f2364ef-270c5c-2517" x1="0%" x2="99.799%" y1="50%" y2="50%"><stop offset="26%" stop-color="#F97A12"/><stop offset="46%" stop-color="#B07B58"/><stop offset="72%" stop-color="#577BAE"/><stop offset="91%" stop-color="#1E7CE5"/><stop offset="100%" stop-color="#087CFA"/></linearGradient><linearGradient id="IconifyId-16f0f2364ef-270c5c-2518" x1=".345%" x2="121.182%" y1="34.54%" y2="77.619%"><stop offset="0%" stop-color="#F97A12"/><stop offset="7%" stop-color="#CB7A3E"/><stop offset="15%" stop-color="#9E7B6A"/><stop offset="24%" stop-color="#757B91"/><stop offset="33%" stop-color="#537BB1"/><stop offset="43%" stop-color="#387CCC"/><stop offset="54%" stop-color="#237CE0"/><stop offset="66%" stop-color="#147CEF"/><stop offset="79%" stop-color="#0B7CF7"/><stop offset="100%" stop-color="#087CFA"/></linearGradient><linearGradient id="IconifyId-16f0f2364ef-270c5c-2519" x1="78.169%" x2="30.106%" y1="97.749%" y2="-6.624%"><stop offset="0%" stop-color="#FE315D"/><stop offset="8%" stop-color="#CB417E"/><stop offset="16%" stop-color="#9E4E9B"/><stop offset="25%" stop-color="#755BB4"/><stop offset="34%" stop-color="#5365CA"/><stop offset="44%" stop-color="#386DDB"/><stop offset="54%" stop-color="#2374E9"/><stop offset="66%" stop-color="#1478F3"/><stop offset="79%" stop-color="#0B7BF8"/><stop offset="100%" stop-color="#087CFA"/></linearGradient><linearGradient id="IconifyId-16f0f2364ef-270c5c-2520" x1="20%" x2="103.422%" y1="24.087%" y2="132.676%"><stop offset="0%" stop-color="#FE315D"/><stop offset="4%" stop-color="#F63462"/><stop offset="10%" stop-color="#DF3A71"/><stop offset="17%" stop-color="#C24383"/><stop offset="29%" stop-color="#AD4A91"/><stop offset="55%" stop-color="#755BB4"/><stop offset="92%" stop-color="#1D76ED"/><stop offset="100%" stop-color="#087CFA"/></linearGradient></defs><path fill="url(#IconifyId-16f0f2364ef-270c5c-2517)" d="M64.8 199.6l-62-48.8l30.8-57.2L122 128z"/><path fill="url(#IconifyId-16f0f2364ef-270c5c-2518)" d="M256 68.4l-4.8 148l-98.4 39.6l-59.2-38.4L180 128l-37.6-83.2l34-40.8z"/><path fill="url(#IconifyId-16f0f2364ef-270c5c-2519)" d="M256 68.4l-78 92l-35.6-115.6l34-40.8z"/><path fill="url(#IconifyId-16f0f2364ef-270c5c-2520)" d="M123.2 212.4L20.8 249.6L37.2 192l21.2-71.2L0 101.2L37.2 0l80 9.6l79.2 90.4z"/><path fill="#000" d="M48 48h160v160H48z"/><path fill="#FFF" d="M63.2 178h60v10h-60v-10zM106 80.8v-12H73.2v12h9.2v42h-9.2v12.4H106v-12.4h-9.2v-42h9.2zm32 55.2a26.84 26.84 0 0 1-13.2-2.8a31.48 31.48 0 0 1-8.8-7.2l9.2-10.4a29.88 29.88 0 0 0 5.6 4.8a11.72 11.72 0 0 0 6.4 1.6a7.44 7.44 0 0 0 6.4-2.8a11.72 11.72 0 0 0 2.4-8.4V68h14.8v43.2a27.08 27.08 0 0 1-1.6 10.4a20 20 0 0 1-5.6 8.8A28.6 28.6 0 0 1 138 136z"/><rect width="256" height="256" x="0" y="0" fill="rgba(0, 0, 0, 0)"/></svg>